<?xml version="1.0" encoding="UTF-8"?>
<svg version="1.1" xmlns="http://www.w3.org/2000/svg" width="512" height="512">
<path d="M0 0 C1.19289642 -0.01004562 2.38579285 -0.02009125 3.61483765 -0.03044128 C4.92549698 -0.03627228 6.23615631 -0.04210327 7.58653259 -0.04811096 C8.97960139 -0.0576511 10.37266781 -0.06754233 11.76573181 -0.07775879 C16.34390962 -0.10913567 20.92210553 -0.12941467 25.50035095 -0.14796448 C26.28010182 -0.1512618 27.05985269 -0.15455912 27.86323237 -0.15795636 C35.22234538 -0.18874503 42.58146257 -0.21544354 49.94062138 -0.23237514 C59.34051099 -0.25425781 68.73982766 -0.29617588 78.13948828 -0.36581272 C84.75535824 -0.413153 91.37107421 -0.43732229 97.98710817 -0.44457203 C101.93470674 -0.44951464 105.8816595 -0.46446037 109.82907295 -0.50431633 C113.54836555 -0.54137298 117.26664866 -0.54953134 120.98609161 -0.5363102 C122.98811389 -0.53638925 124.99006771 -0.56611912 126.99185181 -0.59700012 C135.19055848 -0.53146412 140.87865112 0.87633567 147.2776947 6.16062927 C155.6008484 14.82944716 154.1329167 26.33753269 154.03941345 37.56687927 C154.04091799 39.6585563 154.0443532 41.75023275 154.04962158 43.84190369 C154.05394035 48.21291844 154.03721056 52.58319219 154.00498962 56.9540863 C153.96521068 62.53585621 153.97451892 68.11623747 153.99922466 73.69805145 C154.01345759 78.0134657 154.00328147 82.32855972 153.98571205 86.64395142 C153.97989296 88.7010827 153.98111886 90.75824719 153.98973656 92.81536865 C154.04840186 113.80716234 154.04840186 113.80716234 148.2776947 121.16062927 C145.9261322 123.41453552 145.9261322 123.41453552 143.6526947 124.72312927 C142.89730408 125.17816833 142.14191345 125.6332074 141.3636322 126.10203552 C137.58888496 128.0176844 134.47697164 128.3343125 130.29722595 128.47703552 C128.55215759 128.53987732 128.55215759 128.53987732 126.77183533 128.60398865 C125.55689392 128.64330505 124.34195251 128.68262146 123.0901947 128.72312927 C121.86365173 128.76631287 120.63710876 128.80949646 119.37339783 128.85398865 C116.34161089 128.96016017 113.30974156 129.0622088 110.2776947 129.16062927 C111.00472595 130.08359802 111.7317572 131.00656677 112.4808197 131.95750427 C137.05772535 163.63541407 152.37522731 199.72014483 159.2776947 239.16062927 C159.52261658 240.4522699 159.76753845 241.74391052 160.0198822 243.07469177 C161.3749302 251.29779129 161.53641552 259.52707723 161.6526947 267.84812927 C161.67887878 268.99652283 161.70506287 270.14491638 161.73204041 271.32810974 C161.7342157 272.41108337 161.73639099 273.49405701 161.7386322 274.60984802 C161.74684998 275.58268738 161.75506775 276.55552673 161.76353455 277.55784607 C161.14179807 280.88866647 159.88174182 282.0658059 157.2776947 284.16062927 C154.53552169 284.88901898 152.04940625 284.72976922 149.2776947 284.16062927 C146.02737314 281.82706507 145.03138568 279.98975143 144.2776947 276.16062927 C144.16969682 274.82068647 144.10130007 273.47712965 144.0667572 272.13328552 C143.11187134 243.480797 137.23237357 216.67279325 126.2776947 190.16062927 C116.03565341 193.48237239 108.83843614 204.19175538 104.0511322 213.31297302 C101.67737745 218.19777538 99.9649171 223.3563347 98.44248962 228.5634613 C97.37672978 231.9950225 96.6353355 233.88577569 93.7464447 236.10594177 C85.54411392 239.61010208 78.03023846 238.60327426 69.9495697 235.42234802 C65.90445891 233.51215681 62.61830451 231.1157841 59.2776947 228.16062927 C58.69503845 227.6475824 58.1123822 227.13453552 57.5120697 226.60594177 C53.91692518 223.22132373 51.02813353 219.54724337 48.1526947 215.53562927 C44.26825036 209.82014641 44.26825036 209.82014641 39.2776947 205.16062927 C36.71694797 204.76247716 34.27142485 204.59821591 31.68003845 204.59422302 C28.30664826 203.98536723 27.35958862 202.88025644 25.2776947 200.16062927 C24.74439805 197.2749959 24.46061562 194.7673477 24.35972595 191.86375427 C24.32414581 191.04574341 24.28856567 190.22773254 24.25190735 189.38493347 C24.16061523 186.72618781 24.11701938 184.07077839 24.0901947 181.41062927 C24.0776767 180.50957458 24.06515869 179.6085199 24.05226135 178.68016052 C23.97003874 162.10112603 27.43887622 151.46251591 38.33311462 138.63719177 C40.93867107 135.31882836 43.0944392 131.7661287 45.2776947 128.16062927 C44.66096893 128.17173233 44.04424316 128.18283539 43.40882874 128.1942749 C36.95185424 128.30545612 30.49515452 128.38053898 24.03746033 128.43528748 C21.63207441 128.46033012 19.22676381 128.49437427 16.82164001 128.53782654 C13.35107264 128.59892808 9.88151698 128.6269429 6.4105072 128.64891052 C4.81458237 128.68762016 4.81458237 128.68762016 3.18641663 128.72711182 C-4.15428284 128.7298289 -9.55993484 127.22383238 -15.7223053 123.16062927 C-17.97621155 120.80906677 -17.97621155 120.80906677 -19.2848053 118.53562927 C-19.73984436 117.78023865 -20.19488342 117.02484802 -20.66371155 116.24656677 C-22.34167158 112.94018059 -22.84606414 110.34253657 -22.83583069 106.68919373 C-22.83575516 105.78848648 -22.83567963 104.88777924 -22.83560181 103.95977783 C-22.83044052 102.99094162 -22.82527924 102.02210541 -22.81996155 101.02391052 C-22.81783913 99.53204475 -22.81783913 99.53204475 -22.81567383 98.01004028 C-22.8100729 94.83103945 -22.79752026 91.65210885 -22.7848053 88.47312927 C-22.77979042 86.31883341 -22.77522749 84.16453645 -22.77113342 82.01023865 C-22.76010318 76.72701153 -22.74336416 71.44382542 -22.7223053 66.16062927 C-69.56327287 58.31563947 -123.70597572 58.36294502 -165.7223053 84.16062927 C-165.20321594 85.30950623 -164.68412659 86.45838318 -164.14930725 87.64207458 C-162.19996782 91.95769303 -160.25292729 96.27434553 -158.30653381 100.59129333 C-157.46828082 102.44964342 -156.62942772 104.30772295 -155.78993225 106.16551208 C-141.46439926 137.87109909 -141.46439926 137.87109909 -142.7223053 144.16062927 C-147.43067735 150.76549234 -153.80495811 156.39470721 -159.5348053 162.09812927 C-160.39267639 162.95986755 -161.25054749 163.82160583 -162.13441467 164.7094574 C-162.95361389 165.52736755 -163.77281311 166.34527771 -164.61683655 167.18797302 C-165.35780579 167.92781433 -166.09877502 168.66765564 -166.86219788 169.42991638 C-170.21872461 172.55295327 -172.8509958 172.41149269 -177.25914001 172.35691833 C-181.16302686 172.04581851 -184.59699678 170.87171237 -188.25746155 169.53562927 C-189.02158859 169.26927673 -189.78571564 169.00292419 -190.57299805 168.72850037 C-192.9817499 167.88554755 -195.38313426 167.02352243 -197.7848053 166.16062927 C-199.42953658 165.58122241 -201.07471578 165.00308539 -202.72035217 164.42625427 C-206.72632605 163.01899155 -210.72581725 161.59459779 -214.7223053 160.16062927 C-216.62836879 179.14637523 -216.62836879 179.14637523 -211.10121155 196.27781677 C-208.28784342 198.68593635 -205.11201429 200.35646825 -201.80726624 201.9985199 C-197.90922376 204.17119931 -194.659354 207.20253852 -191.2848053 210.09812927 C-190.00071901 211.177259 -188.7105798 212.24923842 -187.41371155 213.31297302 C-186.86916321 213.76664246 -186.32461487 214.22031189 -185.76356506 214.68772888 C-180.14235266 218.74379567 -175.34978215 220.80703087 -168.59339905 221.97703552 C-167.84067215 222.11963303 -167.08794525 222.26223053 -166.31240845 222.40914917 C-163.93028753 222.85934573 -161.54558106 223.29275688 -159.1598053 223.72312927 C-156.77078439 224.15844051 -154.38276167 224.59766851 -151.99649048 225.04782104 C-150.51893419 225.32620695 -149.03975265 225.59615072 -147.55883789 225.8560791 C-143.18786744 226.67526866 -139.55303948 227.88890208 -135.7223053 230.16062927 C-133.47555586 234.65412815 -134.45373928 240.76611507 -134.42713928 245.76365662 C-134.40992228 248.02029618 -134.36603407 250.27547164 -134.32191467 252.53172302 C-134.3117877 253.96791017 -134.30327161 255.40410977 -134.29652405 256.84031677 C-134.27465027 258.80073914 -134.27465027 258.80073914 -134.25233459 260.80076599 C-134.81278755 264.80749511 -135.59927396 265.69537107 -138.7223053 268.16062927 C-141.27546692 268.68875122 -141.27546692 268.68875122 -144.19007874 268.72581482 C-145.83263641 268.7592524 -145.83263641 268.7592524 -147.50837708 268.79336548 C-149.27716217 268.79533684 -149.27716217 268.79533684 -151.0816803 268.79734802 C-152.30002563 268.80828995 -153.51837097 268.81923187 -154.77363586 268.83050537 C-157.35251128 268.8463761 -159.93147119 268.8515654 -162.51039124 268.84690857 C-166.44444653 268.84812069 -170.37475978 268.90782035 -174.3082428 268.97117615 C-176.81604621 268.97932045 -179.3238638 268.98399044 -181.8316803 268.98484802 C-183.00277344 269.0084288 -184.17386658 269.03200958 -185.38044739 269.05630493 C-191.020937 268.99325162 -194.79992086 268.72486797 -199.17738342 264.97337341 C-200.3872451 263.72929404 -201.57123543 262.45929664 -202.7223053 261.16062927 C-203.69453688 260.1758455 -204.66806077 259.19233494 -205.64320374 258.21043396 C-206.97399963 256.78585876 -206.97399963 256.78585876 -208.3316803 255.33250427 C-209.34345125 254.27401648 -210.35651226 253.21676056 -211.3707428 252.16062927 C-212.92709346 250.53661119 -214.47511938 248.90758711 -216.00257874 247.2563324 C-222.91762492 239.80527046 -228.36723168 235.59981443 -238.7223053 234.16062927 C-241.11001483 233.68368646 -243.49538335 233.19490747 -245.8785553 232.69578552 C-249.58450401 231.94944863 -253.29074285 231.21001443 -257.0035553 230.4985199 C-258.1998053 230.25424255 -259.3960553 230.00996521 -260.6285553 229.75828552 C-261.70427795 229.54695984 -262.78000061 229.33563416 -263.88832092 229.11790466 C-267.12967319 228.0230268 -268.57611513 226.79297816 -270.7223053 224.16062927 C-271.7691803 221.50437927 -271.7691803 221.50437927 -272.4723053 218.66062927 C-272.71464905 217.72219177 -272.9569928 216.78375427 -273.2066803 215.81687927 C-273.7223053 213.16062927 -273.7223053 213.16062927 -273.7223053 209.16062927 C-274.3823053 209.16062927 -275.0423053 209.16062927 -275.7223053 209.16062927 C-276.13996155 211.04394958 -276.13996155 211.04394958 -276.5660553 212.96531677 C-277.34914206 216.49334321 -278.14292598 220.01879157 -278.9410553 223.54344177 C-281.75347728 236.07041996 -284.42945729 248.40410709 -284.95277405 261.27391052 C-285.00739807 262.61159485 -285.00739807 262.61159485 -285.06312561 263.9763031 C-285.12580285 265.71654609 -285.17421511 267.45738447 -285.20570374 269.19847107 C-285.37124196 274.54997804 -286.18106871 278.41532261 -288.7223053 283.16062927 C-291.85172995 284.7253416 -295.33312753 284.85764885 -298.7223053 284.16062927 C-301.21430222 282.13504734 -302.56130865 280.91594658 -303.23988342 277.73240662 C-303.24439514 276.82957947 -303.24890686 275.92675232 -303.2535553 274.99656677 C-303.26177307 273.97023132 -303.26999084 272.94389587 -303.27845764 271.88645935 C-303.25992737 270.78068542 -303.24139709 269.6749115 -303.2223053 268.53562927 C-303.21022034 267.38280457 -303.19813538 266.22997986 -303.1856842 265.04222107 C-302.11573179 217.28019384 -283.49338236 169.30952997 -253.7223053 132.16062927 C-252.95273499 131.18738708 -252.18316467 130.2141449 -251.39027405 129.21141052 C-239.28037399 114.2286198 -225.35119482 100.43454475 -209.7223053 89.16062927 C-208.70523499 88.4103949 -207.68816467 87.66016052 -206.64027405 86.88719177 C-178.67831371 66.83899379 -147.34281087 54.01707707 -113.7223053 47.16062927 C-112.87958069 46.98128845 -112.03685608 46.80194763 -111.16859436 46.61717224 C-97.62559247 43.85088362 -83.92592701 43.85387638 -70.1598053 43.78562927 C-68.80668243 43.77357452 -68.80668243 43.77357452 -67.42622375 43.76127625 C-52.30028418 43.65918775 -37.5370492 45.02517356 -22.7223053 48.16062927 C-22.76158142 46.83055847 -22.76158142 46.83055847 -22.801651 45.47361755 C-22.88761491 42.13734741 -22.94990572 38.80227822 -22.9969635 35.46531677 C-23.02188385 34.02990479 -23.05583405 32.5946167 -23.09950256 31.15965271 C-23.36266797 22.28014214 -23.22798376 14.62124353 -17.7223053 7.16062927 C-15.3707428 4.90672302 -15.3707428 4.90672302 -13.0973053 3.59812927 C-12.34191467 3.14309021 -11.58652405 2.68805115 -10.8082428 2.21922302 C-7.06986115 0.32202934 -4.13665921 0.02736243 0 0 Z M-5.7223053 20.16062927 C-7.13298326 23.9227517 -6.87004275 27.91712438 -6.86756897 31.87913513 C-6.87092758 32.65197342 -6.87428619 33.42481171 -6.87774658 34.22106934 C-6.88723553 36.77255364 -6.88919858 39.32397218 -6.89027405 41.87547302 C-6.89348776 43.65139798 -6.89685191 45.42732267 -6.90036011 47.20324707 C-6.90634601 50.92464309 -6.90820053 54.64601589 -6.90760803 58.36741638 C-6.90750637 63.13337456 -6.92116504 67.89918389 -6.93838024 72.66510677 C-6.94950352 76.33255699 -6.95152715 79.99997124 -6.95099831 83.6674366 C-6.95217768 85.42448503 -6.95659705 87.1815344 -6.96433067 88.93856621 C-6.97413836 91.39672633 -6.97124963 93.85456346 -6.96522522 96.31272888 C-6.97084473 97.0365274 -6.97646423 97.76032593 -6.98225403 98.50605774 C-6.95751365 102.48284303 -6.76464327 105.70193143 -4.7223053 109.16062927 C-0.79439964 112.42690785 2.95194692 112.58872259 7.86607361 112.5453949 C8.6130098 112.55076767 9.35994598 112.55614044 10.1295166 112.56167603 C11.74456324 112.57142951 13.35966212 112.57440553 14.97473526 112.57131958 C17.53018917 112.56683375 20.0849535 112.58086115 22.64033508 112.59971619 C28.98314498 112.64269519 35.325939 112.65376319 41.66886902 112.66593933 C47.03597561 112.67745545 52.40276641 112.70097243 57.76974106 112.7406311 C60.28869019 112.75422777 62.80721555 112.75002673 65.32618713 112.745224 C66.86683193 112.75456148 68.407472 112.76472951 69.94810486 112.77586365 C70.64947067 112.76971542 71.35083649 112.7635672 72.07345581 112.75723267 C74.89376423 112.7931112 76.8309583 112.85895922 79.20381165 114.46128845 C81.01638957 117.32955948 80.85739173 120.54935835 80.9651947 123.84812927 C80.99935486 124.5500238 81.03351501 125.25191833 81.06871033 125.9750824 C81.15099417 127.70304315 81.2160271 129.43181 81.2776947 131.16062927 C86.33175637 127.00506746 90.97954653 122.53814936 95.54454041 117.85667419 C99.76773147 113.55565008 101.64287247 113.03952939 107.64097595 112.94969177 C108.92037048 112.9213324 110.19976501 112.89297302 111.51792908 112.86375427 C113.55202247 112.8225773 115.58588249 112.78568528 117.620224 112.75926208 C119.58570019 112.73152881 121.5508751 112.68456738 123.51597595 112.63719177 C125.2800177 112.60746277 125.2800177 112.60746277 127.07969666 112.57713318 C130.63821857 112.11367502 132.49431796 111.41361863 135.2776947 109.16062927 C137.49427295 104.96669205 137.56247999 100.96620799 137.53648376 96.32859802 C137.5399884 95.55561371 137.54349304 94.78262939 137.54710388 93.98622131 C137.55588089 91.44009832 137.55008635 88.89425492 137.5433197 86.34812927 C137.54466751 84.57363329 137.54660901 82.79913767 137.54911804 81.02464294 C137.55206384 77.3091937 137.54778915 73.59384075 137.53843689 69.87840271 C137.52704268 65.1203037 137.53360506 60.36243034 137.54558182 55.6043396 C137.55281509 51.9411703 137.55050574 48.27805434 137.54532623 44.61488342 C137.5439938 42.86063103 137.54562321 41.10637377 137.55028534 39.35212708 C137.55537469 36.8988414 137.54760661 34.44591919 137.53648376 31.99266052 C137.54255646 30.90931931 137.54255646 30.90931931 137.54875183 29.80409241 C137.5154681 25.83352216 137.31475577 22.61458864 135.2776947 19.16062927 C131.69340233 16.57741823 129.20471288 15.78562388 124.81272888 15.78640747 C123.72765549 15.77939316 122.64258209 15.77237885 121.52462769 15.76515198 C120.34421402 15.77279572 119.16380035 15.78043945 117.94761658 15.78831482 C116.69670731 15.78466415 115.44579803 15.78101349 114.15698242 15.7772522 C110.73329885 15.77054117 107.31015997 15.77725152 103.88652992 15.79058433 C100.30008031 15.80191923 96.71364439 15.79778974 93.12718201 15.7958374 C87.10487698 15.79495507 81.08268464 15.80602204 75.06040955 15.82444763 C68.10247019 15.84561436 61.14469589 15.84912477 54.18673086 15.84288567 C47.48742085 15.83718654 40.78816884 15.84284414 34.08886719 15.85405922 C31.2404981 15.85869794 28.39216456 15.85958221 25.54379272 15.85747337 C21.56505714 15.85523614 17.58647785 15.86971498 13.60777283 15.88597107 C11.83715233 15.88225494 11.83715233 15.88225494 10.03076172 15.87846375 C8.94568832 15.88554855 7.86061493 15.89263336 6.74266052 15.89993286 C5.80247322 15.90198573 4.86228592 15.9040386 3.89360809 15.90615368 C-0.11491921 16.29610251 -2.86771059 17.30603456 -5.7223053 20.16062927 Z M-185.4488678 93.00584412 C-186.07535217 93.45653259 -186.70183655 93.90722107 -187.3473053 94.37156677 C-188.0483136 94.86987 -188.7493219 95.36817322 -189.47157288 95.88157654 C-190.21431458 96.42741394 -190.95705627 96.97325134 -191.7223053 97.53562927 C-192.48760559 98.08855652 -193.25290588 98.64148376 -194.04139709 99.21116638 C-204.55199191 106.86520009 -214.26387654 115.26017976 -223.7223053 124.16062927 C-224.38101624 124.77680115 -225.03972717 125.39297302 -225.71839905 126.02781677 C-239.42248244 139.25716287 -250.29907945 155.708923 -259.7223053 172.16062927 C-260.22246155 172.93019958 -260.7226178 173.6997699 -261.2379303 174.49266052 C-264.1259069 179.21931556 -263.84441963 182.52721161 -262.6363678 187.67234802 C-262.33472717 188.82348083 -262.03308655 189.97461365 -261.7223053 191.16062927 C-261.31101197 192.85404913 -260.90238348 194.5481174 -260.4957428 196.24266052 C-259.62652282 199.82462859 -258.74833089 203.40390819 -257.84339905 206.97703552 C-257.6518927 207.73444031 -257.46038635 208.49184509 -257.26307678 209.27220154 C-256.76612121 211.22608179 -256.76612121 211.22608179 -255.7223053 213.16062927 C-253.27241386 213.80210874 -250.8832768 214.32115615 -248.39808655 214.78172302 C-247.65906601 214.92715042 -246.92004547 215.07257782 -246.15863037 215.22241211 C-242.99031956 215.84562583 -239.81826906 216.44877223 -236.64637756 217.05345154 C-234.33300753 217.49745582 -232.0218414 217.9518573 -229.71058655 218.40672302 C-228.64618095 218.60376076 -228.64618095 218.60376076 -227.56027222 218.80477905 C-219.26159176 220.44071522 -215.12868151 223.38067675 -210.0582428 229.79734802 C-197.32616928 245.83639322 -197.32616928 245.83639322 -179.3296051 253.87545776 C-169.75945596 254.63050585 -160.17463981 253.68991007 -150.7223053 252.16062927 C-150.7223053 249.19062927 -150.7223053 246.22062927 -150.7223053 243.16062927 C-151.91605774 242.91155823 -151.91605774 242.91155823 -153.13392639 242.65745544 C-156.78933367 241.89212943 -160.443312 241.12017681 -164.0973053 240.34812927 C-165.34898499 240.08709412 -166.60066467 239.82605896 -167.89027405 239.55711365 C-188.39654057 235.20892624 -188.39654057 235.20892624 -194.9723053 229.16062927 C-196.07961973 228.17003982 -197.18906802 227.18183146 -198.3004303 226.19578552 C-198.86181702 225.69192322 -199.42320374 225.18806091 -200.00160217 224.66893005 C-202.81975984 222.19864372 -205.76487001 219.89826543 -208.7223053 217.59812927 C-209.29650208 217.14897156 -209.87069885 216.69981384 -210.46229553 216.23704529 C-213.44610187 213.9095173 -216.44674007 211.60535931 -219.46058655 209.31687927 C-220.06064514 208.85998718 -220.66070374 208.40309509 -221.27894592 207.93235779 C-222.42451553 207.06187143 -223.57283845 206.19499316 -224.72425842 205.33226013 C-228.61177177 202.38169633 -228.61177177 202.38169633 -229.7223053 200.16062927 C-229.82831166 198.38962971 -229.87109408 196.61468729 -229.88343811 194.84056091 C-229.89304565 193.72923294 -229.9026532 192.61790497 -229.91255188 191.47290039 C-229.91680176 190.26770248 -229.92105164 189.06250458 -229.9254303 187.82078552 C-229.93113037 186.58775192 -229.93683044 185.35471832 -229.94270325 184.08432007 C-229.95216259 181.47247682 -229.95869092 178.86062158 -229.96253967 176.24876404 C-229.9669375 173.56666044 -229.98087686 170.88487619 -230.0035553 168.2028656 C-230.0339131 164.34623881 -230.04457587 160.49001825 -230.0504303 156.63328552 C-230.0627771 155.43011185 -230.0751239 154.22693817 -230.08784485 152.98730469 C-230.08484375 151.87282455 -230.08184265 150.75834442 -230.07875061 149.61009216 C-230.08421906 148.13688255 -230.08421906 148.13688255 -230.08979797 146.63391113 C-229.7223053 144.16062927 -229.7223053 144.16062927 -228.45678711 142.34313965 C-225.16185243 140.09676588 -221.54528844 140.7208133 -217.7223053 141.16062927 C-214.53970511 141.90082831 -211.51891043 142.95248263 -208.45277405 144.07469177 C-207.60934952 144.3679837 -206.76592499 144.66127563 -205.89694214 144.9634552 C-202.32116282 146.20704419 -198.75708518 147.48267591 -195.192276 148.75730896 C-192.57490331 149.68786712 -189.9517683 150.60050782 -187.32777405 151.51219177 C-186.52357529 151.80687347 -185.71937653 152.10155518 -184.89080811 152.40516663 C-184.13935013 152.66558746 -183.38789215 152.9260083 -182.61366272 153.19432068 C-181.9568602 153.42970551 -181.30005768 153.66509033 -180.62335205 153.90760803 C-178.08315845 154.245697 -176.87247901 153.48166739 -174.7223053 152.16062927 C-172.30282668 150.23300122 -170.12368836 148.06898419 -167.9098053 145.91062927 C-167.2994342 145.34988708 -166.68906311 144.7891449 -166.06019592 144.21141052 C-165.4884967 143.65324646 -164.91679749 143.0950824 -164.32777405 142.52000427 C-163.80336731 142.01952576 -163.27896057 141.51904724 -162.73866272 141.00340271 C-161.12749706 138.08217321 -161.86239395 136.35184556 -162.7223053 133.16062927 C-163.90913466 130.00306285 -165.2656634 126.93428542 -166.6519928 123.85984802 C-167.04299164 122.98286758 -167.43399048 122.10588715 -167.83683777 121.20233154 C-168.66208625 119.35763367 -169.49100888 117.5145756 -170.32337952 115.67308044 C-171.59835018 112.84581222 -172.85419214 110.01055496 -174.10902405 107.17430115 C-174.91386795 105.38146868 -175.71981916 103.5891328 -176.5269928 101.79734802 C-176.90209991 100.94638046 -177.27720703 100.0954129 -177.66368103 99.21865845 C-178.02060028 98.43727005 -178.37751953 97.65588165 -178.74525452 96.85081482 C-179.05534454 96.16053696 -179.36543457 95.47025909 -179.68492126 94.75906372 C-181.24099796 92.36141105 -182.84505498 91.73118349 -185.4488678 93.00584412 Z M64.2776947 131.16062927 C63.37529734 132.403992 62.52180737 133.68286241 61.68785095 134.97312927 C61.15506531 135.79297302 60.62227966 136.61281677 60.073349 137.45750427 C58.90597884 139.27820048 57.74214525 141.10116851 56.58164978 142.92625427 C53.88891064 147.15606637 51.19995974 151.33456931 48.1917572 155.34812927 C40.5846965 165.79577615 40.10492925 174.44263944 41.2776947 187.16062927 C41.80443787 187.410224 42.33118103 187.65981873 42.87388611 187.91697693 C52.69554801 192.67810801 58.57792989 199.28672497 64.68077087 208.13963318 C69.8406291 215.55119425 73.51900379 218.87484991 82.2776947 221.16062927 C82.6180072 220.22863708 82.9583197 219.2966449 83.3089447 218.33641052 C90.48508824 199.22611057 101.15993714 184.41795533 118.2776947 173.16062927 C115.43306091 166.62268642 111.80958567 160.76439765 107.7776947 154.91062927 C107.31516296 154.23773865 106.85263123 153.56484802 106.37608337 152.87156677 C103.52733306 148.79025682 100.51679169 144.93957576 97.2776947 141.16062927 C92.22363304 145.31619109 87.57584287 149.78310918 83.010849 154.46458435 C78.95683185 158.59331668 77.089844 159.27045547 71.25035095 159.48875427 C68.60725766 159.04911103 67.90157776 158.28124606 66.2776947 156.16062927 C65.84532166 153.52513123 65.84532166 153.52513123 65.76597595 150.39891052 C65.73052673 149.2806488 65.69507751 148.16238708 65.65855408 147.01023865 C65.63599548 145.84299255 65.61343689 144.67574646 65.5901947 143.47312927 C65.55603455 142.29428162 65.52187439 141.11543396 65.48667908 139.90086365 C65.40411545 136.98754703 65.33499148 134.07453462 65.2776947 131.16062927 C64.9476947 131.16062927 64.6176947 131.16062927 64.2776947 131.16062927 Z " fill="#000000" transform="translate(326.72230529785156,175.83937072753906)"/>
<path d="M0 0 C1.40396754 -0.00814726 2.80792223 -0.01883988 4.21185303 -0.03186035 C7.99726019 -0.05903392 11.78167778 -0.04868444 15.56710052 -0.02958584 C19.54492182 -0.01430142 23.52266335 -0.02850896 27.50048828 -0.03790283 C34.17821324 -0.04879174 40.85553891 -0.03450457 47.53320312 -0.00585938 C55.23271499 0.02678967 62.93127332 0.01621071 70.6307621 -0.01681781 C77.26384402 -0.0441233 83.89664035 -0.04785031 90.52976036 -0.03218579 C94.48160791 -0.02287384 98.43300855 -0.0214666 102.38482666 -0.04140472 C106.10191302 -0.05885157 109.81778073 -0.04651134 113.53473663 -0.01203918 C115.53418849 -0.00043631 117.53374452 -0.01805023 119.53314209 -0.0368042 C127.71295057 0.07748264 133.41461268 1.51361555 139.8046875 6.77636719 C148.17071379 15.4637809 146.67764283 27.13492373 146.6015625 38.40136719 C146.6056104 40.51546632 146.61143861 42.62956271 146.61895752 44.74365234 C146.62777439 49.16173037 146.61503983 53.57907764 146.58691406 57.99707031 C146.55272974 63.63951798 146.57242837 69.28025299 146.60834885 74.92263794 C146.63010617 79.2843906 146.62309502 83.64574209 146.60758209 88.00750732 C146.6036005 90.0869772 146.60841741 92.16648437 146.62245941 94.24591064 C146.72879586 114.41566618 146.72879586 114.41566618 141.71133423 120.91390991 C134.39131829 128.06427329 127.67037045 129.53736694 117.69418335 129.45614624 C116.15548407 129.42552022 114.61679799 129.39422448 113.078125 129.36230469 C111.47817589 129.35109237 109.87820597 129.34256182 108.27822876 129.33657837 C104.09875041 129.31383933 99.92055427 129.25504989 95.74157715 129.18835449 C91.46461322 129.12660579 87.18743893 129.09949437 82.91015625 129.06933594 C74.54108297 129.00528784 66.17304543 128.90309518 57.8046875 128.77636719 C57.8361084 130.01725098 57.8361084 130.01725098 57.86816406 131.28320312 C57.95130369 135.03080089 58.00334281 138.77820468 58.0546875 142.52636719 C58.08820313 143.82832031 58.12171875 145.13027344 58.15625 146.47167969 C58.17558594 148.34726562 58.17558594 148.34726562 58.1953125 150.26074219 C58.2267334 151.9888916 58.2267334 151.9888916 58.25878906 153.75195312 C57.70496104 157.44056688 56.77239346 158.57976644 53.8046875 160.77636719 C49.85516312 161.50044666 47.42987288 161.83559415 44.01977539 159.61303711 C39.91442846 155.95970592 36.27591897 152.06391282 32.72265625 147.87792969 C21.84292378 134.57526565 21.84292378 134.57526565 6.58203125 128.16308594 C1.94365717 127.94198729 -2.53727395 128.22613411 -7.15625 128.63964844 C-13.57691081 129.1358528 -17.976988 127.48282289 -23.1953125 123.77636719 C-25.44921875 121.42480469 -25.44921875 121.42480469 -26.7578125 119.15136719 C-27.21285156 118.39597656 -27.66789062 117.64058594 -28.13671875 116.86230469 C-30.4792022 112.24648858 -30.36985033 107.92891271 -30.40405273 102.8737793 C-30.41383652 101.96281494 -30.4236203 101.05185059 -30.43370056 100.11328125 C-30.46365261 97.0934393 -30.48504359 94.0736418 -30.50390625 91.05371094 C-30.51047808 90.02085024 -30.5170499 88.98798954 -30.52382088 87.92383003 C-30.55641912 82.45289606 -30.58086475 76.98198156 -30.6003418 71.51098633 C-30.61812869 66.99181601 -30.65290684 62.47327273 -30.70288086 57.9543457 C-30.76322193 52.49134791 -30.79383732 47.02892987 -30.80351448 41.5656147 C-30.8120493 39.48886942 -30.83081839 37.41213879 -30.8602581 35.33558464 C-31.14674273 13.97174101 -31.14674273 13.97174101 -24.1953125 6.77636719 C-16.58293837 0.51087422 -9.59573181 -0.09000616 0 0 Z M-12.1953125 19.77636719 C-14.59092642 23.83827445 -14.47984716 28.01549962 -14.45410156 32.60839844 C-14.4576062 33.38138275 -14.46111084 34.15436707 -14.46472168 34.95077515 C-14.47349869 37.49689814 -14.46770414 40.04274154 -14.4609375 42.58886719 C-14.46228531 44.36336317 -14.46422681 46.13785879 -14.46673584 47.91235352 C-14.46968164 51.62780276 -14.46540695 55.34315571 -14.45605469 59.05859375 C-14.44466048 63.81669276 -14.45122286 68.57456612 -14.46319962 73.33265686 C-14.47043289 76.99582616 -14.46812354 80.65894212 -14.46294403 84.32211304 C-14.4616116 86.07636543 -14.46324101 87.83062269 -14.46790314 89.58486938 C-14.47299249 92.03815506 -14.46522441 94.49107727 -14.45410156 96.94433594 C-14.45815002 97.66656342 -14.46219849 98.38879089 -14.46636963 99.13290405 C-14.43303049 103.1100849 -14.06551296 106.23902837 -12.1953125 109.77636719 C-8.40051726 112.85234667 -5.44150047 113.11943388 -0.64453125 113.04199219 C0.61166016 113.04585938 1.86785156 113.04972656 3.16210938 113.05371094 C5.78726493 113.03556171 8.4123615 113.00184471 11.03710938 112.95214844 C21.81545408 113.02933351 21.81545408 113.02933351 26.3515625 116.95214844 C27.53180006 118.19990531 28.68495362 119.47404082 29.8046875 120.77636719 C30.84895773 121.81291609 31.89934254 122.8433578 32.95703125 123.86621094 C34.37151116 125.31243233 35.78589693 126.75875002 37.19726562 128.20800781 C38.38316893 129.41398282 39.59177457 130.59756077 40.8046875 131.77636719 C41.1346875 131.77636719 41.4646875 131.77636719 41.8046875 131.77636719 C41.84207031 130.72835937 41.87945312 129.68035156 41.91796875 128.60058594 C41.98363265 127.22164414 42.05007985 125.84273948 42.1171875 124.46386719 C42.13974609 123.77357422 42.16230469 123.08328125 42.18554688 122.37207031 C42.45335984 117.33231733 42.45335984 117.33231733 43.87857056 115.07702637 C46.79574461 113.10713081 49.73418843 113.36179614 53.13427734 113.39160156 C53.87770889 113.38622879 54.62114044 113.38085602 55.38710022 113.37532043 C57.00108618 113.36553845 58.61512475 113.36259957 60.22913742 113.36567688 C62.78498199 113.37015107 65.34013271 113.35616587 67.89590454 113.33728027 C73.3238208 113.30047035 78.7516648 113.28678704 84.1796875 113.27636719 C90.46298857 113.26428846 96.74595259 113.24272596 103.02910233 113.19636536 C105.54463185 113.18279783 108.05973511 113.18696595 110.57528687 113.19177246 C112.12229961 113.18242984 113.66930766 113.17226051 115.21630859 113.16113281 C115.91362595 113.16728104 116.6109433 113.17342926 117.32939148 113.17976379 C121.64269577 113.12536789 124.45961503 112.55798658 127.8046875 109.77636719 C130.20030142 105.71445992 130.08922216 101.53723476 130.06347656 96.94433594 C130.0669812 96.17135162 130.07048584 95.39836731 130.07409668 94.60195923 C130.08287369 92.05583624 130.07707914 89.50999283 130.0703125 86.96386719 C130.07166031 85.1893712 130.07360181 83.41487558 130.07611084 81.64038086 C130.07905664 77.92493161 130.07478195 74.20957866 130.06542969 70.49414062 C130.05403548 65.73604161 130.06059786 60.97816825 130.07257462 56.22007751 C130.07980789 52.55690822 130.07749854 48.89379226 130.07231903 45.23062134 C130.0709866 43.47636895 130.07261601 41.72211169 130.07727814 39.96786499 C130.08236749 37.51457932 130.07459941 35.0616571 130.06347656 32.60839844 C130.06954926 31.52505722 130.06954926 31.52505722 130.07574463 30.41983032 C130.0424609 26.44926008 129.84174856 23.23032656 127.8046875 19.77636719 C124.20942969 17.18318099 121.7076655 16.40067546 117.30175781 16.39541626 C116.20827026 16.38695679 115.11478271 16.37849731 113.98815918 16.36978149 C112.79839478 16.37585419 111.60863037 16.38192688 110.3828125 16.38818359 C109.12214966 16.38292664 107.86148682 16.37766968 106.56262207 16.37225342 C103.1121909 16.35859894 99.6620294 16.36387057 96.21159363 16.37339067 C92.59710983 16.38099703 88.98264879 16.37393896 85.36816406 16.36923218 C79.29878605 16.36377746 73.22951762 16.37095875 67.16015625 16.38525391 C60.14764244 16.40157996 53.13539031 16.39629124 46.12288284 16.37977469 C40.0972533 16.36615169 34.07170244 16.36424412 28.04606247 16.3720907 C24.44932517 16.37676277 20.8527108 16.37740497 17.25598145 16.36748123 C13.246018 16.35718975 9.23650423 16.37146216 5.2265625 16.38818359 C3.44191589 16.37907455 3.44191589 16.37907455 1.62121582 16.36978149 C0.52772827 16.37824097 -0.56575928 16.38670044 -1.69238281 16.39541626 C-3.11372528 16.39711287 -3.11372528 16.39711287 -4.56378174 16.39884377 C-7.7299504 16.85306716 -9.61467482 17.91500581 -12.1953125 19.77636719 Z " fill="#000000" transform="translate(118.1953125,71.2236328125)"/>
<path d="M0 0 C2.11797106 0.60286202 4.23219489 1.21900298 6.34301758 1.84643555 C7.47024734 2.1722612 8.59747711 2.49808685 9.75886536 2.83378601 C12.12963646 3.52169288 14.49873485 4.21538811 16.86621094 4.91455078 C20.48287487 5.98177508 24.10469026 7.02978571 27.7277832 8.07495117 C30.03735505 8.74765745 32.3466112 9.42144873 34.65551758 10.09643555 C36.27287056 10.5653698 36.27287056 10.5653698 37.92289734 11.04377747 C51.34873355 15.0265579 51.34873355 15.0265579 53.43017578 18.6237793 C53.70027466 19.76073242 53.70027466 19.76073242 53.97583008 20.9206543 C54.19577637 21.80881836 54.41572266 22.69698242 54.64233398 23.61206055 C54.85937988 24.62139648 55.07642578 25.63073242 55.30004883 26.6706543 C55.55963379 27.81405273 55.81921875 28.95745117 56.08666992 30.13549805 C56.78620534 33.3157354 57.45162858 36.50005859 58.08984375 39.69311523 C58.48735616 41.66969625 58.90021157 43.64267867 59.3137207 45.6159668 C63.01772592 63.99674459 63.01772592 63.99674459 59.78442383 69.0300293 C56.46590627 71.22150315 53.10355708 73.13729514 49.55004883 74.9206543 C48.87200195 75.28416992 48.19395508 75.64768555 47.49536133 76.0222168 C42.53201024 78.53220043 38.862516 79.39214586 33.30004883 78.6706543 C30.94848633 77.31518555 30.94848633 77.31518555 29.30004883 74.6706543 C28.89323793 73.12315687 28.53717323 71.56199602 28.21411133 69.99487305 C26.58434802 62.39247467 24.89430629 54.83393553 18.05883789 50.30297852 C12.89096157 47.26837865 7.45771807 44.85214937 1.91577148 42.59130859 C-9.25706676 38.00373934 -9.25706676 38.00373934 -11.41870117 33.81518555 C-11.89087697 32.44842982 -12.31783739 31.06527262 -12.69995117 29.6706543 C-13.26345608 28.20158712 -13.8312701 26.7341666 -14.40307617 25.26831055 C-14.92496633 23.75874326 -15.44057472 22.24698994 -15.94995117 20.7331543 C-16.21807617 19.98614258 -16.48620117 19.23913086 -16.76245117 18.46948242 C-18.5436765 13.20305346 -19.39395878 8.23415095 -18.69995117 2.6706543 C-14.94915684 -4.01554429 -6.26328266 -1.63003712 0 0 Z M3.30004883 19.6706543 C3.10967319 22.0195445 3.10967319 22.0195445 4.30004883 24.6706543 C7.02784325 26.71749682 10.05177699 28.12358137 13.11254883 29.6081543 C13.97460938 30.05288086 14.83666992 30.49760742 15.72485352 30.95581055 C19.43668122 32.85546647 23.06369844 34.58418464 26.98364258 36.01831055 C32.33632313 38.02982744 35.13345471 39.82970868 37.58129883 45.0378418 C39.43270517 49.5031021 40.92142995 54.03965988 42.30004883 58.6706543 C42.63004883 58.6706543 42.96004883 58.6706543 43.30004883 58.6706543 C42.86033644 51.96504041 41.89464133 45.34894938 40.73754883 38.7331543 C40.55820801 37.47184692 40.55820801 37.47184692 40.37524414 36.18505859 C39.92341676 33.78041386 39.43404281 31.84004651 38.30004883 29.6706543 C35.37830353 28.0682969 33.46478585 27.40558445 30.30004883 26.6706543 C28.23902132 26.06642823 26.17921007 25.45804438 24.12036133 24.84643555 C21.88961588 24.22166899 19.65781878 23.60064668 17.42504883 22.9831543 C16.28551758 22.66282227 15.14598633 22.34249023 13.97192383 22.01245117 C8.71296869 20.35306471 8.71296869 20.35306471 3.30004883 19.6706543 Z " fill="#000000" transform="translate(226.699951171875,269.329345703125)"/>
<path d="M0 0 C2.5625 1.5 2.5625 1.5 4 4 C4.54153233 6.78176608 4.73026776 9.25075665 4 12 C1.05931962 15.50292639 -1.60135042 16.86669936 -5.91015625 18.2890625 C-7.06580078 18.67320312 -8.22144531 19.05734375 -9.41210938 19.453125 C-10.61673828 19.83984375 -11.82136719 20.2265625 -13.0625 20.625 C-14.24005859 21.01945312 -15.41761719 21.41390625 -16.63085938 21.8203125 C-29.04716006 25.88807675 -40.98890671 27.51240479 -54 28 C-54.79583496 28.03399902 -55.59166992 28.06799805 -56.41162109 28.10302734 C-58.85775506 28.19809311 -61.30260658 28.26035912 -63.75 28.3125 C-64.51256104 28.34230957 -65.27512207 28.37211914 -66.06079102 28.40283203 C-69.55896589 28.4397666 -71.59867927 28.28584637 -74.484375 26.23046875 C-76.52195303 23.23186809 -76.57182522 21.42852377 -76.39453125 17.90234375 C-75.78611893 14.96871205 -74.38853486 13.70609633 -72 12 C-68.77382486 10.92460829 -66.33947262 10.84697233 -62.9453125 10.78125 C-47.18855193 10.2637295 -33.45147931 8.39521524 -18.53173828 3.09960938 C-12.03369543 0.80321727 -6.91060636 -0.66083113 0 0 Z " fill="#000000" transform="translate(308,394)"/>
<path d="M0 0 C2.24642857 1.5074718 4.02629821 3.12257634 6 5 C8.57729827 3.81047772 10.54789551 2.57385905 12.8125 0.8125 C16 -1 16 -1 19.625 -1.0625 C23.71108416 0.22385983 25.02126538 1.20742531 27 5 C27.11011215 11.05616846 24.98086297 13.81499021 21 18 C22.18952228 20.57729827 23.42614095 22.54789551 25.1875 24.8125 C27 28 27 28 27.0625 31.625 C25.77614017 35.71108416 24.79257469 37.02126538 21 39 C14.94383154 39.11011215 12.18500979 36.98086297 8 33 C5.42270173 34.18952228 3.45210449 35.42614095 1.1875 37.1875 C-2 39 -2 39 -5.625 39.0625 C-9.71108416 37.77614017 -11.02126538 36.79257469 -13 33 C-13.11011215 26.94383154 -10.98086297 24.18500979 -7 20 C-8.18952228 17.42270173 -9.42614095 15.45210449 -11.1875 13.1875 C-13 10 -13 10 -13.0625 6.375 C-10.86523724 -0.60454054 -6.79297809 -2.02597592 0 0 Z " fill="#000000" transform="translate(305,81)"/>
<path d="M0 0 C3.49219991 1.31725188 6.68595055 3.05212363 9.9375 4.875 C10.79923828 5.33519531 11.66097656 5.79539062 12.54882812 6.26953125 C18.84704748 9.69409497 18.84704748 9.69409497 20 12 C20.56872038 19.0521327 20.56872038 19.0521327 18.5 22.5 C15.00390746 24.59765552 11.93073326 24.60447341 8 24 C4.50780009 22.68274812 1.31404945 20.94787637 -1.9375 19.125 C-2.79923828 18.66480469 -3.66097656 18.20460938 -4.54882812 17.73046875 C-10.84704748 14.30590503 -10.84704748 14.30590503 -12 12 C-12.56872038 4.9478673 -12.56872038 4.9478673 -10.5 1.5 C-7.00390746 -0.59765552 -3.93073326 -0.60447341 0 0 Z " fill="#000000" transform="translate(180,372)"/>
<path d="M0 0 C2.5 1.5 2.5 1.5 4 4 C4.78300075 8.27091317 4.97936742 10.48991393 2.6015625 14.15625 C0.82933804 16.23029434 -1.02244732 18.12215585 -3 20 C-4.2065625 21.2375 -4.2065625 21.2375 -5.4375 22.5 C-9.27374566 24.74560721 -11.57999234 24.56127081 -16 24 C-18.5 22.5 -18.5 22.5 -20 20 C-20.78300075 15.72908683 -20.97936742 13.51008607 -18.6015625 9.84375 C-16.82933804 7.76970566 -14.97755268 5.87784415 -13 4 C-12.195625 3.175 -11.39125 2.35 -10.5625 1.5 C-6.72625434 -0.74560721 -4.42000766 -0.56127081 0 0 Z " fill="#000000" transform="translate(236,364)"/>
<path d="M0 0 C2.5 1.5 2.5 1.5 4 4 C4.78300075 8.27091317 4.97936742 10.48991393 2.6015625 14.15625 C0.82933804 16.23029434 -1.02244732 18.12215585 -3 20 C-4.2065625 21.2375 -4.2065625 21.2375 -5.4375 22.5 C-9.27374566 24.74560721 -11.57999234 24.56127081 -16 24 C-18.5 22.5 -18.5 22.5 -20 20 C-20.78300075 15.72908683 -20.97936742 13.51008607 -18.6015625 9.84375 C-16.82933804 7.76970566 -14.97755268 5.87784415 -13 4 C-12.195625 3.175 -11.39125 2.35 -10.5625 1.5 C-6.72625434 -0.74560721 -4.42000766 -0.56127081 0 0 Z " fill="#000000" transform="translate(188,332)"/>
<path d="M0 0 C3.34238038 2.14255152 3.89167954 3.60282498 4.9375 7.4375 C5.00779003 11.44403151 4.53249114 12.94354518 2 16 C-0.6740203 18.10101595 -2.04284685 17.99846976 -5.5 17.875 C-9.405988 16.898503 -10.83194553 16.38216497 -13 13 C-13.70476018 8.06667872 -13.77041398 6.15562097 -11 2 C-6.84437903 -0.77041398 -4.93332128 -0.70476018 0 0 Z " fill="#000000" transform="translate(429,232)"/>
<path d="M0 0 C3.34238038 2.14255152 3.89167954 3.60282498 4.9375 7.4375 C5.00779003 11.44403151 4.53249114 12.94354518 2 16 C-0.6740203 18.10101595 -2.04284685 17.99846976 -5.5 17.875 C-9.405988 16.898503 -10.83194553 16.38216497 -13 13 C-13.70476018 8.06667872 -13.77041398 6.15562097 -11 2 C-6.84437903 -0.77041398 -4.93332128 -0.70476018 0 0 Z " fill="#000000" transform="translate(397,232)"/>
<path d="M0 0 C3.34238038 2.14255152 3.89167954 3.60282498 4.9375 7.4375 C5.00779003 11.44403151 4.53249114 12.94354518 2 16 C-0.6740203 18.10101595 -2.04284685 17.99846976 -5.5 17.875 C-9.405988 16.898503 -10.83194553 16.38216497 -13 13 C-13.70476018 8.06667872 -13.77041398 6.15562097 -11 2 C-6.84437903 -0.77041398 -4.93332128 -0.70476018 0 0 Z " fill="#000000" transform="translate(365,232)"/>
<path d="M0 0 C3.34238038 2.14255152 3.89167954 3.60282498 4.9375 7.4375 C5.00779003 11.44403151 4.53249114 12.94354518 2 16 C-0.6740203 18.10101595 -2.04284685 17.99846976 -5.5 17.875 C-9.405988 16.898503 -10.83194553 16.38216497 -13 13 C-13.70476018 8.06667872 -13.77041398 6.15562097 -11 2 C-6.84437903 -0.77041398 -4.93332128 -0.70476018 0 0 Z " fill="#000000" transform="translate(445,128)"/>
<path d="M0 0 C3.34238038 2.14255152 3.89167954 3.60282498 4.9375 7.4375 C5.00779003 11.44403151 4.53249114 12.94354518 2 16 C-0.6740203 18.10101595 -2.04284685 17.99846976 -5.5 17.875 C-9.405988 16.898503 -10.83194553 16.38216497 -13 13 C-13.70476018 8.06667872 -13.77041398 6.15562097 -11 2 C-6.84437903 -0.77041398 -4.93332128 -0.70476018 0 0 Z " fill="#000000" transform="translate(213,128)"/>
<path d="M0 0 C3.34238038 2.14255152 3.89167954 3.60282498 4.9375 7.4375 C5.00779003 11.44403151 4.53249114 12.94354518 2 16 C-0.6740203 18.10101595 -2.04284685 17.99846976 -5.5 17.875 C-9.405988 16.898503 -10.83194553 16.38216497 -13 13 C-13.70476018 8.06667872 -13.77041398 6.15562097 -11 2 C-6.84437903 -0.77041398 -4.93332128 -0.70476018 0 0 Z " fill="#000000" transform="translate(181,128)"/>
<path d="M0 0 C3.34238038 2.14255152 3.89167954 3.60282498 4.9375 7.4375 C5.00779003 11.44403151 4.53249114 12.94354518 2 16 C-0.6740203 18.10101595 -2.04284685 17.99846976 -5.5 17.875 C-9.405988 16.898503 -10.83194553 16.38216497 -13 13 C-13.70476018 8.06667872 -13.77041398 6.15562097 -11 2 C-6.84437903 -0.77041398 -4.93332128 -0.70476018 0 0 Z " fill="#000000" transform="translate(149,128)"/>
</svg>
