<?xml version="1.0" encoding="UTF-8"?>
<svg version="1.1" xmlns="http://www.w3.org/2000/svg" width="512" height="512">
<path d="M0 0 C25.36003778 20.71561226 42.2240926 47.82003654 46.3125 80.6953125 C49.32677546 116.47587856 38.12756982 143.75174545 18.71875 173.07421875 C15.45294999 178.01138612 12.26220489 182.9911365 9.09692383 187.99316406 C-0.73493306 203.51595768 -11.04674713 218.70141459 -21.38427734 233.88964844 C-24.2379529 238.08349493 -27.08324045 242.28297576 -29.92578125 246.484375 C-30.37721497 247.15160583 -30.82864868 247.81883667 -31.29376221 248.50628662 C-31.74064392 249.16679016 -32.18752563 249.8272937 -32.64794922 250.5078125 C-36.47144255 256.1589785 -40.30127658 261.80584278 -44.13104248 267.45275879 C-45.29245905 269.16575372 -46.45321062 270.87919735 -47.61376953 272.59277344 C-49.69872835 275.67006358 -51.78640286 278.74549099 -53.875 281.8203125 C-54.47634766 282.70879883 -55.07769531 283.59728516 -55.69726562 284.51269531 C-63.30190634 295.69001567 -63.30190634 295.69001567 -66.3125 297.1953125 C-71.00462093 297.77663722 -74.96168417 298.12801867 -78.9375 295.3828125 C-79.72125 294.3309375 -80.505 293.2790625 -81.3125 292.1953125 C-81.90417969 291.41671875 -82.49585938 290.638125 -83.10546875 289.8359375 C-87.34471949 284.16173729 -91.2566137 278.29477349 -95.17700195 272.3972168 C-98.58533275 267.28686372 -102.04490112 262.21160858 -105.5 257.1328125 C-113.4844255 245.38048156 -121.44875983 233.61456379 -129.39981079 221.83963013 C-130.65668403 219.9787759 -131.91413331 218.1183106 -133.17221069 216.25827026 C-140.64097154 205.21458764 -148.01207956 194.11865539 -155.21569824 182.90011597 C-156.62596521 180.70808081 -158.04963721 178.52497011 -159.4765625 176.34375 C-181.14444483 143.16033487 -194.96706592 111.56768018 -187.3125 71.1953125 C-182.69220904 49.20829975 -172.42761944 29.7128657 -157.3125 13.1953125 C-156.63316406 12.44507813 -155.95382813 11.69484375 -155.25390625 10.921875 C-115.46785356 -30.93205984 -45.30505779 -34.38330278 0 0 Z M-142.31640625 29.89453125 C-159.96895807 50.24160174 -168.83825378 76.01183227 -166.98413086 102.91333008 C-165.15865139 122.65477699 -157.36746148 138.28481598 -146.6875 154.8203125 C-146.02927246 155.84463379 -145.37104492 156.86895508 -144.69287109 157.92431641 C-134.54611745 173.63622522 -123.96057351 189.06425213 -113.47755432 204.55239868 C-108.49720552 211.91387653 -103.54945583 219.29635944 -98.625 226.6953125 C-97.59270264 228.24351685 -97.59270264 228.24351685 -96.53955078 229.82299805 C-93.20327306 234.83138544 -89.88021552 239.84806228 -86.57695007 244.87826538 C-84.89827412 247.43261701 -83.21448312 249.98357515 -81.53012085 252.53417969 C-80.72496734 253.75659075 -79.92236938 254.98068929 -79.12246704 256.20654297 C-78.02532119 257.88783582 -76.91914414 259.56322501 -75.8125 261.23828125 C-74.86890625 262.67723755 -74.86890625 262.67723755 -73.90625 264.14526367 C-73.11734375 265.16003784 -73.11734375 265.16003784 -72.3125 266.1953125 C-71.6525 266.1953125 -70.9925 266.1953125 -70.3125 266.1953125 C-68.58557047 264.01992626 -68.58557047 264.01992626 -66.76171875 261.14453125 C-66.3996936 260.59590424 -66.03766846 260.04727722 -65.66467285 259.48202515 C-64.86416038 258.26748991 -64.0667878 257.05088107 -63.27206421 255.83255005 C-61.04954723 252.42602012 -58.80415716 249.03457674 -56.5625 245.640625 C-56.07436325 244.90016434 -55.5862265 244.15970367 -55.08329773 243.39680481 C-49.25847238 234.57277581 -43.32490931 225.82240827 -37.39950562 217.06576538 C-27.40503839 202.2913984 -17.45327188 187.49855195 -7.79882812 172.49902344 C-6.30673133 170.18637144 -4.80352594 167.88131696 -3.296875 165.578125 C2.58367361 156.57662035 8.29848406 147.50063759 13.6875 138.1953125 C14.17992187 137.37417969 14.67234375 136.55304688 15.1796875 135.70703125 C25.8215771 116.57145957 27.1485297 90.8385046 21.5949707 69.9519043 C13.91938815 44.41910624 -2.60093489 22.86698183 -26.0234375 9.82421875 C-65.82752702 -9.88873295 -111.41163397 -2.12952856 -142.31640625 29.89453125 Z " fill="#000000" transform="translate(327.3125,118.8046875)"/>
<path d="M0 0 C11.37216073 8.74911771 20.45566777 21.01418979 22.4453125 35.62109375 C22.53425781 36.80832031 22.53425781 36.80832031 22.625 38.01953125 C22.74488281 39.36144531 22.74488281 39.36144531 22.8671875 40.73046875 C23.53456884 55.3736004 18.8731003 69.30294966 9.5234375 80.546875 C0.02707993 90.63046316 -12.99215828 97.42817553 -26.94140625 98.22265625 C-44.02508707 98.42305133 -57.41209019 94.44747911 -70.0859375 82.4375 C-80.99375329 70.91542155 -85.94597313 57.08502203 -85.6171875 41.33984375 C-84.59405481 27.31302461 -78.28715507 13.01300359 -67.68359375 3.640625 C-47.73800091 -11.52888031 -21.36499183 -14.75053942 0 0 Z M-56.91015625 25.81640625 C-62.92295431 33.73997688 -63.45517263 42.31744013 -62.375 52.01953125 C-59.54877438 61.27192766 -53.82185866 68.33928858 -45.41796875 73.13671875 C-36.98157643 76.99650609 -28.51353004 76.90299039 -19.83203125 74.0625 C-11.27693203 70.43100319 -4.64761844 63.31797002 -1.10546875 54.7734375 C1.0298251 46.7232655 0.93981159 37.44291706 -3.05078125 30.0078125 C-8.46248877 21.88226935 -15.5536625 15.09712188 -25.375 13.01953125 C-38.67248085 11.76322855 -48.24933852 15.67906234 -56.91015625 25.81640625 Z " fill="#000000" transform="translate(287.375,168.98046875)"/>
</svg>
