<?xml version="1.0" encoding="UTF-8"?>
<svg version="1.1" xmlns="http://www.w3.org/2000/svg" width="128" height="128">
<path d="M0 0 C3.12567815 2.45588998 3.77141889 4.37775143 5.125 8.0625 C4.93170228 14.15137804 2.20926951 18.89902806 -1 24 C-1.94875 24.804375 -2.8975 25.60875 -3.875 26.4375 C-7.10161904 30.32842295 -6.46655181 34.13139525 -6.37109375 39.0390625 C-6.20115105 42.18244014 -6.20115105 42.18244014 -4 45 C-2.515 45.99 -2.515 45.99 -1 47 C-1.62871287 52.65841584 -1.62871287 52.65841584 -3.5625 54.4375 C-5.39867555 56.09947165 -5.39867555 56.09947165 -5.1875 59.6875 C-5.125625 60.780625 -5.06375 61.87375 -5 63 C-3.02 63.495 -3.02 63.495 -1 64 C-0.25 66.25 -0.25 66.25 0 69 C-0.65097656 69.52851562 -1.30195312 70.05703125 -1.97265625 70.6015625 C-5.0303595 74.21896096 -4.40056406 77.55315093 -4.1875 82.125 C-3.90863971 90.81727941 -3.90863971 90.81727941 -5 93 C-7.38122923 93.24539385 -9.73715922 93.42164422 -12.125 93.5625 C-12.79015625 93.63791016 -13.4553125 93.71332031 -14.140625 93.79101562 C-16.1328125 93.87890625 -16.1328125 93.87890625 -20 93 C-22.60614252 90.34515564 -24.24440843 87.25908465 -26 84 C-26.5244873 83.07501709 -27.04897461 82.15003418 -27.58935547 81.19702148 C-29.2188335 78.29452908 -30.80236932 75.37113574 -32.375 72.4375 C-32.92027344 71.42880859 -33.46554688 70.42011719 -34.02734375 69.38085938 C-35.3554767 66.92264839 -36.67960235 64.46237185 -38 62 C-38.90363281 62.77085938 -39.80726562 63.54171875 -40.73828125 64.3359375 C-41.92961667 65.34904163 -43.12102683 66.36205788 -44.3125 67.375 C-44.90740234 67.88289063 -45.50230469 68.39078125 -46.11523438 68.9140625 C-46.69208984 69.40390625 -47.26894531 69.89375 -47.86328125 70.3984375 C-48.65665894 71.07398682 -48.65665894 71.07398682 -49.46606445 71.76318359 C-50.91162467 72.92874273 -52.45494456 73.96996304 -54 75 C-53.2155198 80.53264986 -50.56583981 84.95495823 -47.984375 89.84375 C-47 93 -47 93 -48.17578125 95.7265625 C-50.32750197 98.40815021 -52.34642292 100.79947267 -55 103 C-58.50042074 102.69996394 -60.39820901 101.06301753 -62.9375 98.75 C-63.97197266 97.81220703 -63.97197266 97.81220703 -65.02734375 96.85546875 C-67.40624942 94.61788421 -69.72649669 92.34455029 -72 90 C-73.485 90.99 -73.485 90.99 -75 92 C-79.32351988 92.56045628 -81.29704773 92.4786058 -84.9375 90 C-87.75626291 85.89998122 -87.46798749 83.91386866 -87 79 C-86.77586426 78.31881104 -86.55172852 77.63762207 -86.32080078 76.93579102 C-86.21493652 76.29697998 -86.10907227 75.65816895 -86 75 C-87.90018053 72.78113716 -89.73127058 70.89179471 -91.875 68.9375 C-97.88589041 63.34232877 -97.88589041 63.34232877 -99 60 C-97.70703125 57.9921875 -97.70703125 57.9921875 -95.8125 55.875 C-95.20019531 55.17117187 -94.58789062 54.46734375 -93.95703125 53.7421875 C-91.81285768 51.83340225 -90.80573716 51.37835573 -88 51 C-85.98535156 51.62084961 -85.98535156 51.62084961 -83.890625 52.65234375 C-82.75947266 53.19858398 -82.75947266 53.19858398 -81.60546875 53.75585938 C-80.82816406 54.14580078 -80.05085938 54.53574219 -79.25 54.9375 C-78.45722656 55.32357422 -77.66445312 55.70964844 -76.84765625 56.10742188 C-74.89325875 57.06107367 -72.94591894 58.0291649 -71 59 C-65.96567535 53.5488903 -61.15057415 48.15891648 -57 42 C-57.70286133 41.73574219 -58.40572266 41.47148438 -59.12988281 41.19921875 C-64.56573892 38.92795938 -69.61601954 35.87595306 -74.75 33 C-75.92309426 32.35141267 -77.09627057 31.70297372 -78.26953125 31.0546875 C-79.92275391 30.13042969 -79.92275391 30.13042969 -81.609375 29.1875 C-83.1248291 28.34251953 -83.1248291 28.34251953 -84.67089844 27.48046875 C-87 26 -87 26 -88 24 C-88.12283119 21.66906388 -88.17554232 19.33413961 -88.1875 17 C-88.20167969 15.741875 -88.21585938 14.48375 -88.23046875 13.1875 C-88 10 -88 10 -86 8 C-82.19824642 7.94792118 -78.44743163 8.05605807 -74.65234375 8.25390625 C-69.70336092 8.49764348 -69.70336092 8.49764348 -65.6015625 5.9765625 C-65.07304688 5.32429688 -64.54453125 4.67203125 -64 4 C-61.25 4.25 -61.25 4.25 -59 5 C-58.505 6.98 -58.505 6.98 -58 9 C-54.6675213 9.33417929 -54.6675213 9.33417929 -51 9 C-49.64691687 7.68671343 -48.31129922 6.35500919 -47 5 C-44.25 5.25 -44.25 5.25 -42 6 C-41.505 8.475 -41.505 8.475 -41 11 C-28.92384146 11.55226862 -28.92384146 11.55226862 -18.6875 6.0625 C-18.05199219 5.35222656 -17.41648437 4.64195313 -16.76171875 3.91015625 C-12.22505969 -1.00874902 -6.30987244 -0.92058929 0 0 Z M-21.0790863 17.57460022 C-21.92826126 18.43814621 -22.77743622 19.3016922 -23.65234375 20.19140625 C-24.55191299 21.09189194 -25.45148224 21.99237762 -26.37831116 22.92015076 C-28.27496973 24.82283383 -30.16738676 26.72877188 -32.0534668 28.6418457 C-34.44114299 31.06330356 -36.84157396 33.47158561 -39.24695492 35.87544346 C-41.57519183 38.20436382 -43.89485785 40.54177073 -46.21484375 42.87890625 C-47.06199448 43.72828262 -47.9091452 44.577659 -48.78196716 45.45277405 C-54.58995072 51.35175817 -59.85965188 57.51285644 -65 64 C-63.68 65.65 -62.36 67.3 -61 69 C-56.56745248 67.57793511 -53.65068226 65.18246808 -50.34765625 62.01953125 C-49.79481461 61.49929886 -49.24197296 60.97906647 -48.67237854 60.44306946 C-41.28617349 53.44718694 -34.06023972 46.28287405 -26.8581543 39.09838867 C-24.4170313 36.66711387 -21.96542831 34.24671749 -19.51367188 31.82617188 C-17.94465809 30.26367769 -16.37627537 28.70054951 -14.80859375 27.13671875 C-14.08256454 26.42303635 -13.35653534 25.70935394 -12.60850525 24.9740448 C-8.5764493 20.92415412 -5.44587816 17.18985893 -3 12 C-3.11310085 9.15981613 -3.11310085 9.15981613 -4 7 C-10.94579352 7 -16.51579864 13.04592605 -21.0790863 17.57460022 Z M-80 16 C-80 17.65 -80 19.3 -80 21 C-79.44127197 21.30703857 -78.88254395 21.61407715 -78.30688477 21.93041992 C-75.72530696 23.34923526 -73.14390271 24.76836612 -70.5625 26.1875 C-69.68400391 26.67025391 -68.80550781 27.15300781 -67.90039062 27.65039062 C-62.25872351 30.75226664 -56.62505221 33.86809335 -51 37 C-50.28714844 36.27554688 -49.57429688 35.55109375 -48.83984375 34.8046875 C-40.1335216 26.00252431 -40.1335216 26.00252431 -35.8125 22.375 C-34.4203125 21.199375 -34.4203125 21.199375 -33 20 C-33 19.67 -33 19.34 -33 19 C-38.48029141 18.12148 -43.89186513 17.71976626 -49.43359375 17.46484375 C-50.7504995 17.40037804 -50.7504995 17.40037804 -52.0940094 17.33460999 C-54.8750347 17.1991727 -57.65625155 17.06826612 -60.4375 16.9375 C-62.33269681 16.84600327 -64.22787929 16.75420945 -66.12304688 16.66210938 C-70.74853936 16.43796907 -75.37420902 16.2178895 -80 16 Z M-16.35107422 39.25341797 C-16.9132666 39.82721191 -17.47545898 40.40100586 -18.0546875 40.9921875 C-18.66957031 41.61480469 -19.28445312 42.23742188 -19.91796875 42.87890625 C-21.21492171 44.20174649 -22.51179765 45.52466224 -23.80859375 46.84765625 C-24.42605469 47.47285156 -25.04351562 48.09804688 -25.6796875 48.7421875 C-26.24413574 49.3182373 -26.80858398 49.89428711 -27.39013672 50.48779297 C-29 52 -29 52 -32 54 C-31.02679808 60.61231588 -27.45383324 65.98439726 -24.25 71.75 C-23.62867187 72.91144531 -23.00734375 74.07289062 -22.3671875 75.26953125 C-21.75617188 76.37167969 -21.14515625 77.47382812 -20.515625 78.609375 C-19.96165039 79.61967773 -19.40767578 80.62998047 -18.83691406 81.67089844 C-17.17882589 84.22698191 -17.17882589 84.22698191 -14.28027344 84.83691406 C-13.5277832 84.89073242 -12.77529297 84.94455078 -12 85 C-11.80057352 75.07714779 -12.4184027 65.21234001 -13 55.3125 C-13.09664004 53.62827159 -13.19299638 51.94402687 -13.2890625 50.25976562 C-13.52277343 46.17298189 -13.76031503 42.08643754 -14 38 C-15.1849739 37.88664739 -15.1849739 37.88664739 -16.35107422 39.25341797 Z M-89 60 C-83.19316781 67.11905227 -76.63714556 73.47374812 -70.125 79.9375 C-68.94768362 81.10979204 -67.77059826 82.28231614 -66.59375 83.45507812 C-63.73182511 86.30606982 -60.86678543 89.15389615 -58 92 C-56.64047309 89.00188097 -56.64047309 89.00188097 -58.15234375 86.14453125 C-65.26214331 72.87394257 -73.47215417 66.21817852 -87 60 C-87.66 60 -88.32 60 -89 60 Z " fill="#000000" transform="translate(111,13)"/>
</svg>
